<?xml version="1.0" encoding="utf-8"?>
<!-- Generator: Adobe Illustrator 21.0.0, SVG Export Plug-In . SVG Version: 6.00 Build 0)  -->
<svg version="1.0" id="Layer_1" xmlns="http://www.w3.org/2000/svg" xmlns:xlink="http://www.w3.org/1999/xlink" x="0px" y="0px"
	 viewBox="0 0 324.8 353.2" style="enable-background:new 0 0 324.8 353.2;" xml:space="preserve">
<style type="text/css">
	.st0{fill:#0067B1;}
</style>
<g>
	<g>
		<g>
			<path class="st0" d="M135,300.1c2.2,0,6-0.7,9-5.5c-1.7-3.8-2.9-11.4-3.1-14.2c-0.9-14.3,4.6-27.7,10.6-28
				c4.4-0.3,7.9,3.9,8.3,10.7c1.1,17.8-4.8,25.2-7.8,31.6c0.5,2.5,4.7,6.7,8.7,6.7c1.5,0,3.2-0.7,3.7-1.3c-0.3-1-0.6-2.3-0.6-4.3
				c0-10.3,6.6-19,12.4-19c4.6,0,7.2,6,7.2,10c0,4.7-4,8.5-9.8,12.2c1,1,2.9,1.8,4.6,1.8c8.4,0,12.8-10.1,16-19.4
				c0.6-1.8,1.6-4.3,3.7-4.3c3.5,0,5,23.2,10.9,23.2c2.5,0,4.6-5.2,4.6-9.1c0-2.9-1-3.2-1-7.5c0-4.7,2.5-8.7,5.9-8.7
				c2.1,0,2.8,2,2.8,4.5c0,9.4-6.8,26.9-16.8,26.9c-7.5,0-6.9-12.9-9.6-12.9c-3,0-7.1,13.1-21.6,13.1c-2.4,0-4.9-1.2-6.9-3.5
				c-3.5,2.4-6.5,3.4-9.9,3.4c-5.4,0-7.8-5.6-10-5.6c-2.6,0-5.6,5.7-14.4,5.7c-7.1,0-8.2-9.4-10.7-9.4c-2.2,0-5.6,9.4-9.3,9.4
				c-6.2,0-7.5-16.3-12.9-16.3c-4.3,0-17.7,16.6-21.4,16.2c-1.5-0.2-2.1-1.3-1.9-2.7c0.2-2,2-7.5,2.7-10.1c1.2-4.5,2.3-9.4,2.9-10.9
				c0.6-1.6,2.2-2.7,3.5-2.6c0.7,0.1,0.9,1.3,1.1,2.3c0.7,3.6,1.8,7.3,2.9,7.3c2.1,0,8.9-13.1,12.9-13.1c4.9,0,5.4,20.6,12.1,20.6
				c2.2,0,3.8-2.6,5.3-5.9c0.1-5.4,1.6-13.2,6-13.2c3.1,0,4.6,6.9,2.3,12.9C127.2,298.4,131.9,300.1,135,300.1z M252.6,282.5
				c-1.8,7.6-7.3,18.7-15.6,18.7c-1.9,0-5.3-0.7-5.3-2.7c0-2.1,12.9-2.3,12.9-12.2c0-3.7-3.4-8.8-8.4-8.8c-6.6,0-13.1,7.2-13.1,17.2
				c0,9,5.6,11.9,11.2,11.9c9.7,0,15.6-7.9,18.7-14.6c1.5,4.4,2.3,14.6,6,14.6c1.5,0,2.5-0.7,4.3-4.7c4.4-9.9,8.7-21.2,14.6-21.2
				c2.2,0,0.9,4,6.2,4c2.5,0,4.3-2.1,4.3-4.4c0-3.4-3.1-6-7.8-6c-13.8,0-16.8,20.7-19,20.7c-3.7,0-2.5-16.6-5.2-16.6
				C254.1,278.4,253,281.2,252.6,282.5z M155.1,267c-0.3-4.1-1.2-6-3.5-5.8c-2.9,0.2-4.3,9.4-3.7,19.1c0.4,6.3,1.3,7.3,2.2,7.2
				C151.8,287.4,155.7,276.1,155.1,267z M131.2,258.4c-0.2-2.4-2.1-4-4.6-4c-2.8,0-5.4,2.9-5.1,6.6c0.2,2.4,1.6,4.4,4.4,4.4
				C129.2,265.4,131.5,261.8,131.2,258.4z M176.9,288.4c0-2.5-1.3-4.6-2.9-4.6c-1.3,0-4.4,1.5-4.4,6.2c0,3.7,1.3,5.4,1.9,6.2
				C175.8,294.8,176.9,291.3,176.9,288.4z M234.4,283.4c3.1,0,4,3.7,3.2,5.9c-0.7,2.2-3.4,4.7-7.5,5.4
				C229.3,292.5,228.8,283.4,234.4,283.4z M65.1,272.9c-0.4-1.3-1.6-4.3-2-6.6c-0.7-4.9,1.8-8.1,4.2-8.9c2.6-0.7,3.7,0.6,4.7,3.7
				c1.3,4.7,1.5,10.9,1,19.7c-0.6,12.1-6.6,26.6-21.6,26.3c-12.9-0.3-18.7-8.7-19.3-21.5c-0.3-6,0.1-12.1,2.6-20.6
				c1.3-4.6,2.5-6.2,6.6-7.1c3.2-0.6,2.9,2.8,2.2,6.8c-1.6,8.8-2.4,13.1-1.8,23.1c0.6,10.6,5.4,14.7,10.7,14.7
				c7.9,0.2,11.5-6.5,12.9-16C66.8,279,65.9,275.3,65.1,272.9z"/>
		</g>
	</g>
	<g>
		<path class="st0" d="M238.5,81.7c1,7.4,12.2,17.4,15.3,17.2c2-0.2,2.8-9.7,2.8-17.2c0-4.3,0.2-7.6-2-8.4
			C251,80.5,241.6,82,238.5,81.7z M239.2,78.4c8.1,0,15.5-6.5,15.5-12.2c0-2.7-1.3-4.8-4.5-5.2c0.5,0.7,0.8,1.2,0.8,2.5
			c0,4.3-6.5,9.1-13.6,9.1c-2.6,0-3.4,1.8-3.4,2.7C234,77.5,236.1,78.4,239.2,78.4z M237.4,69.6c-1.1,0-2.7,0-3.5-1.7
			c-0.7-1.4-0.5-3.7-1.8-4.7c1.3,0.4,2.7,0.4,3.8,0.4c3.5,0,6.9-2.4,9.5-2.4c1.7,0,2.2,1.1,2.2,2.2
			C247.7,66.8,240.7,69.6,237.4,69.6z"/>
		<path class="st0" d="M62.9,130.7c2.6,0,2.1-16.2,6.4-16.2c1,0,1.3,1,1.3,2.3c0,3.7-1.8,9-1.8,12c0,1.5,0.4,2,1.1,2
			c1.9,0,5.1-17.9,8.3-17.9c1,0,1.5,1,1.5,2c0,3.7-4.8,14.5-4.8,17.6c0,0.5,0.2,0.9,0.5,0.9c2,0,5.9-8.4,7.1-12.6
			c0.7-2.2,1.6-3.4,2.5-3.4c0.8,0,1.5,0.9,1.5,2.7c0,4.2-3.9,14.1-7.3,20.8c-2.7,5.1-6.8,12.6-6.8,16.7c0,2.1,0.4,4.3,3.4,6.9
			c-5-0.3-7-0.8-8.9-4.7c-8.3,16.6,15.4,15,7.3,29.7c-1.5-2.6-13.2-5.4-13.2-20.8c0-13.3,11.7-21.1,11.7-26.7c0-1.1-0.4-2-1.4-2.9
			c-2.6-2.2-2.7-4-4.7-4c-1.5,0-3.3,3.4-1.4,6.5c0.6,1,1.2,1.6,1.2,2.6c0,2.2-3.4,8-5.8,8c-2.4,0-4.3-6-4.3-15.7
			c0-8.6,1.9-17.2,4.4-17.2c0.7,0,0.9,0.5,0.9,1.1c0,1-0.3,3-0.3,6.5C61.4,130.4,62.2,130.7,62.9,130.7z"/>
		<path class="st0" d="M82.8,153.6c3.3,0,6-2.4,6-7.8v-8c0-3,0.2-6.5,2.3-8.9c-0.2,1-0.2,2.1-0.2,3.1c0,6.7,3.7,11.3,3.7,17.8
			c0,2.4-0.7,3.7-2.6,3.7c-1.8,0-1.6-1.6-2-1.6c-0.3,0-0.8,1-0.8,2.1c0,1.6,1.2,4.2,4.4,4.2c2.8,0,5.1-2.6,5.1-5.5
			c0-7-5.5-14.8-5.5-22.3c0-3.3,0.9-5.5,1.6-7.2c0,15.5,13.2,26.8,13.2,33.3c0,1.5-1.1,2.7-2.7,2.7c-1.8,0-2.7-1.4-2.7-2.5
			c0-0.5-0.1-0.7-0.3-0.7c-0.5,0-1.9,1.6-1.9,3.6c0,2.6,2.1,5.7,6,5.7c4.4,0,6.9-3.7,6.9-7.1c0-8.2-16-20.6-16-33.9
			c0-2.3,0.4-5.9,2-8.7c-10.3,6.6-13.5,15.4-13.5,23.2c0,6.7-0.2,10.1-3.7,10.1c-1.8,0-2.3-1.6-2.9-1.6c-0.5,0-0.7,1.4-0.7,1.8
			C78.6,151.9,80.7,153.6,82.8,153.6z"/>
		<path class="st0" d="M218,75.7c3.4,0,6-1.6,6-2.5c0-0.3-0.5-0.5-1.5-0.5c-1,0-3-0.1-6.9-0.7c-3.3-0.5-5.8-1.8-6.7-1.8
			c-0.3,0-0.5,0.2-0.5,0.4C208.5,72.5,212.2,75.7,218,75.7z M201,65.7c1-0.7,5.4,0.4,11.1-2.4c0.7-0.4,1.4-0.5,2-0.5
			c2.7,0,2,3.1,4.5,3.1c1.9,0,4.4-1.6,5.9-1.6c2.3,0,5.7,7.3,5.7,10.8c0,4-6,6.4-13.1,6.4c-10.4,0-16.6-9-16.6-14.9
			C200.5,66.1,200.8,65.9,201,65.7z"/>
		<path class="st0" d="M84.5,183c-2.6,0.6-6.7,4.7-6.7,11.1c0,7.6,8.2,19.4,21.7,19.4c11.4,0,14.2-7.9,14.2-13.2
			c0-11.8-7.2-20-16.7-20c-5.2,0-9.8,3.7-9.8,9.3c0,5.2,3.9,12.9,13.2,12.9c4.4,0,6.9-3.1,6.9-6.7c0-3.5-3.2-8.3-7.9-8.3
			c-1.4,0-2.4,0.9-2.4,2.4c0,1.9,2.6,3.7,5.8,3.7c0.8,0,1.4-0.2,1.7-0.3c0.2,0.2,0.2,0.6,0.2,0.9c0,1.8-1.7,2.9-4.4,2.9
			c-4,0-7.8-3-7.8-7.7c0-2.8,2.4-4.8,5.9-4.8c6.9,0,11.1,6.2,11.1,12.3c0,5.5-3,8.7-9.3,8.7C87.8,205.6,81.7,194.4,84.5,183z"/>
		<path class="st0" d="M167.5,213.1c0,1.7,1.4,3.1,3.1,3.1c1.7,0,3.1-1.4,3.1-3.1c0-1.7-1.4-3.1-3.1-3.1
			C168.9,210,167.5,211.4,167.5,213.1z M173.5,228.7c3.7,0,3.5-0.3,4.7-0.3c1.2,0,1.2,0.7,1.2,1.2c0,1.7-3.8,3.8-10.6,3.8
			c-4,0-6.4-2.1-7.1-4.5c-3.9,2.5-9.8,4.8-15.7,4.8c-16,0-20-6.9-25-9.2c-3.8-1.7-9.7,1.6-17.9-7.5c1.1,0.2,2.6,0.3,3.7,0.3
			c7.2,0,11-3.5,11-9.1c0-0.7-0.1-1.5-0.2-2.2c2.2,0.9,7.2,4.6,8.3,11.2c0.2,0.8,3.4,1.5,5.4,1.5c2.8,0,6.4-1.2,6.9-5.8
			c9.4-0.8,15.7-6.3,17-13.3c3.4,1.1,7.2,4.1,8.1,5.7c1.3-0.5,2.9-0.7,4.7-0.7c2.5,0,5.3,0.5,8.7,1.5c0.2-1,0.3-2.3,1.9-2.3
			c2.3,0,1.7,2.6,2.5,4.1c0.4,0.8,2.3,1.2,2.3,2.8c0,1.5-1.3,2-2,2c-0.3,0-0.7-0.1-0.9-0.2c-1.6,0.5-1.6,11.8-8.2,11.8
			c-4.8,0-9.3-4-11.2-9c-0.5-1.5-1.7-2.4-2.8-2.4c-1.2,0-1.9,0.2-3.4,1.9c-4.2,4.6-11.2,8.6-19.9,8.6c-2.7,0-4.8-0.2-5.3-0.2
			c-0.3,0-0.3,0.1-0.3,0.2c0,0.5,2.7,2.7,8.4,2.7c13.7,0,17.1-7.7,19.3-7.7c0.3,0,1.2,0,1.8,1.2C162.2,227,169.1,228.7,173.5,228.7z
			"/>
		<path class="st0" d="M220.8,179c-1.6,0-10.7,12.1-16.5,12.1c-1.4,0-2.6-2.7-2.6-4.7c0-1.1,0.7-1.9,3.2-2.4
			c13.4-3,10.4-13.1,21.9-13.1c6.3,0,13.3,4.3,13.3,14c0,10.3-14.7,23.1-16.8,23.1c-1.8,0-3.7-2.6-3.7-4.3c0-0.5,0.2-1.2,1.8-1.9
			c7.5-3,11.8-9.8,11.8-13.3c0-0.8-0.4-1.6-1.4-1.6c-1.3,0-7,12.9-13.3,12.9c-4.4,0-8.8-4-8.8-5.8c0-3.1,12.6-8.9,12.6-13.3
			C222.2,179.1,221.5,179,220.8,179z M229.2,174.2c-1.1,0-2.3,0.9-2.3,3c0,2.3,1.8,3.8,2.8,4.3c0.5,0.3,1.4,0.6,2.3,0.6
			c2.3,0,4.1-0.6,4.1-2.5C236.1,177.1,232.6,174.2,229.2,174.2z"/>
		<path class="st0" d="M83.5,83.8c0,1.7,1.4,3.1,3.1,3.1c1.7,0,3.1-1.4,3.1-3.1c0-1.7-1.4-3.1-3.1-3.1
			C84.9,80.7,83.5,82.1,83.5,83.8z M79.5,76.8c0,1.7,1.4,3.1,3.1,3.1c1.7,0,3.1-1.4,3.1-3.1c0-1.7-1.4-3.1-3.1-3.1
			C80.9,73.7,79.5,75.1,79.5,76.8z M76.7,98.2c-1.8,0.5-5.5,2.7-5.5,6.6c0,2.8,2.2,4.6,4.9,4.6c1.4,0,2.4-0.3,3-0.8
			c-2.2-2.1-3-4.4-3-6.8C76.1,100.1,76.4,99.1,76.7,98.2z M57.6,99.3c-0.1,0.4-0.1,0.8-0.1,1.2c0,3.7,1.9,5.7,4.5,5.7
			c1.9,0,4.2-1.2,6.2-3.7c-0.9,0.2-1.9,0.2-2.8,0.2C62.6,102.6,59.4,101.9,57.6,99.3z M54.8,106.2c0,5.9,1.8,8.7,5,8.7
			c2.5,0,5.8-1.8,9.8-5.2c-3,0.7-5.4,1.2-7.5,1.2C59.4,110.9,57.2,109.8,54.8,106.2z M75,75c0.4-1.3,0.7-2.8,0.7-4.5
			c0-3.7-1.7-9.4-7-9.4c-3,0-5.2,2.4-5.2,5.3C63.5,72.5,69.6,75,75,75z M68.4,94.7c-2.6,0-5.4-3.2-5.4-6.1c0-1.6,1.2-3.5,2-3.5
			c0.3,0,0.5,0.2,0.5,0.8c0.5,3.8,3,6,5.3,7.1c0.2,0.2,0.4,0.2,0.4,0.4C71.3,93.9,69.8,94.7,68.4,94.7z M75.6,85.2
			c0.5,0.7,2,1.6,2,2.2c0,1.1-0.6,2.5-1.9,2.5c-2.7,0-4.9-4.1-4.9-6.5c0-1.5,0.9-1.6,2-1.6c0.5,0,0.8,0.1,1.2,0.3
			C74.7,82.4,74.7,84,75.6,85.2z M57.2,94.8c-0.1,0.2-0.2,0.5-0.2,0.9c0,0.7,0.8,1.5,1.5,1.5c0.6,0,1-0.2,1.3-0.2c1.9,0,4,1.3,7,1.3
			c1.8,0,3.9-0.5,6.6-1.9c5.6-2.8,7.8-9.8,7.8-10.9c0-1.5-1.2-1.3-2.2-2.7c-1-1.4-0.6-2.6-1.2-3.2c-0.4-0.4-1.5-0.4-2.9-0.5
			c-0.5-0.1-1.1-0.1-1.7-0.1c-2.6,0-5.6,0.3-9,2.5C57.3,85.9,58.3,93.1,57.2,94.8z M83.1,91.7c-1.7,2-3.5,5.5-3.5,9
			c0,4.2,2.6,7.7,6.6,7.7c3.8,0,5.6-3.3,5.6-6.6C91.8,96.6,87,92.9,83.1,91.7z M66.5,76.7c0,0-2.3,1.7-5.1,1.7c-3.4,0-6-2.5-6-6
			c0-2.4,1.2-4.9,4.1-6.2c-0.1,0.5-0.1,0.9-0.1,1.3C59.4,72.1,61.9,75.4,66.5,76.7z"/>
		<path class="st0" d="M204,102.6c0,1.8,1.5,3.3,3.3,3.3c1.8,0,3.3-1.5,3.3-3.3c0-1.8-1.5-3.3-3.3-3.3
			C205.5,99.4,204,100.9,204,102.6z M204.2,112.5c0,2,1.6,3.7,3.7,3.7c2,0,3.7-1.6,3.7-3.7c0-2-1.6-3.7-3.7-3.7
			C205.9,108.8,204.2,110.4,204.2,112.5z M193,119.1c0,3,2.4,5.4,5.4,5.4c3,0,5.4-2.4,5.4-5.4c0-3-2.4-5.4-5.4-5.4
			C195.4,113.7,193,116.1,193,119.1z M195.9,108.1c0,1.7,1.4,3.1,3.1,3.1c1.7,0,3.1-1.4,3.1-3.1c0-1.7-1.4-3.1-3.1-3.1
			C197.3,105,195.9,106.4,195.9,108.1z M185.7,114.3c0,1.7,1.4,3.1,3.1,3.1c1.7,0,3.1-1.4,3.1-3.1c0-1.7-1.4-3.1-3.1-3.1
			C187.1,111.2,185.7,112.6,185.7,114.3z M193.7,96.1c0,2.7,2.3,5,5,5c2.7,0,5-2.3,5-5c0-2.7-2.3-5-5-5
			C195.9,91.1,193.7,93.4,193.7,96.1z M199.5,86.5c0,1.6,1.3,3,3,3c1.6,0,3-1.3,3-3c0-1.6-1.3-3-3-3
			C200.9,83.5,199.5,84.9,199.5,86.5z M185.4,94c0,1.6,1.3,3,2.9,3c1.6,0,3-1.3,3-3c0-1.6-1.3-3-3-3C186.7,91,185.4,92.4,185.4,94z
			 M185,104.1c0,2.7,2.1,4.8,4.7,4.8c2.7,0,4.8-2.1,4.8-4.8c0-2.7-2.1-4.8-4.8-4.8C187.1,99.4,185,101.5,185,104.1z M175.2,109.1
			c0,2.4,2,4.4,4.4,4.4c2.4,0,4.4-2,4.4-4.4c0-2.4-2-4.4-4.4-4.4C177.2,104.7,175.2,106.7,175.2,109.1z M177.8,98.1
			c0,1.7,1.4,3.1,3.1,3.1c1.7,0,3.1-1.4,3.1-3.1c0-1.7-1.4-3.1-3.1-3.1C179.3,95,177.8,96.4,177.8,98.1z M205.2,122.1
			c0-1.6,1.4-2.9,2.9-2.9c1.7,0,3,1.3,3,2.9c0,1.8-1.3,3-3,3C206.6,125.2,205.2,123.9,205.2,122.1z"/>
		<path class="st0" d="M207.2,211.9c0.4,0,0.9,0.2,0.9,1.6c0,1.7-0.8,4-3.6,5.8c-2,1.3-4.6,2.4-8.5,2.5c0.6-1.9,1.1-3.8,1.1-5.7
			c0-0.6-0.1-1.1-0.2-1.8h1C204.1,214.3,206.8,211.9,207.2,211.9z M207.9,204.1c0.6-0.5,0.8-1.4,0.8-2.3v-1.8c0-2.3-3.4-3.6-8.1-3.6
			c-5.7,0-8.7,2.6-8.7,3.7v3.6c0,1.5,3.4,3,7.7,3C202.8,206.7,205.9,205.9,207.9,204.1z M211.9,205c-2,1.6-6.8,5.1-14.7,5.1
			c-4.2,0-6.1-1.3-6.7-1.3c-0.8,0-1.6,0.8-2.5,1.8c-1.9,2.2-4.3,6.2-4.3,10.7c0,3.1,2.4,6.2,6.9,6.2c14.6,0,25.5-9.1,25.5-16.5
			C216.2,206.7,213.7,205,211.9,205z"/>
		<path class="st0" d="M214.7,139.4c0,1.9,0.6,4.2,2.6,4.2c1.6,0,3-2.5,3-5.2c0-3.1-0.5-5.5-0.5-6.8c0-0.5,0.2-0.8,0.5-0.8
			c1.2,0.1,2.3,3.3,3.5,3.3c1.4,0,3.5-2.6,4.4-2.6c0.2,0,0.3,0.3,0.3,0.4c0,1.2-1.8,3.7-1.8,4.8c0,0.9,4.5,1,4.5,1.8
			c0,1.2-4.7,1.2-7,2.2c-2.2,0.9-3.5,2.1-3.5,3.7c0,1.6,1.6,1.9,3.8,1.9c5.2,0,8.9-2.8,10-2.8c0.2,0,0.4,0.2,0.4,0.4
			c0,0.8-2.7,3.4-2.7,4.5c0,1.3,4.8,2.9,4.8,3.7c-0.1,0.2-0.4,0.3-0.9,0.3c-0.9,0-2.2-0.2-3.2-0.2c-0.6,0-1.2,0.1-1.4,0.4
			c-0.5,0.6,0.2,4.8-0.9,4.8c-1,0-3.7-9.2-9.7-9.2c-0.9,0-1.5,0.7-1.5,1.9c0,3.1,3,6.7,5.9,8.4c1.3,0.9,3.5,1.7,3.5,2.2
			c0,0.9-5,0.1-5,1.6c0,1.4,0.6,3.5,0.6,4.8c0,0.4-0.1,0.9-0.5,0.9c-0.9,0-3.2-4.3-4.3-4.3c-0.9,0-3,2.6-3.8,2.6
			c-0.2,0-0.4-0.2-0.4-0.5c0-1.8,2.9-5.9,2.9-9.8c0-1.9-0.2-5.9-2.5-5.9c-1.9,0-4,3-4.9,5.9c-0.5,1.7-0.2,8.3-1.4,8.3
			c-1.2,0-0.9-4.4-2.4-4.4c-1.2,0-3.7,2.1-4.5,2.1c-0.2,0-0.3-0.1-0.3-0.2c0-0.9,2.3-4,2.3-4.6c0-1.2-5.2-1.3-5.2-2.3
			c0-0.5,2-0.9,3.9-1.2c4-0.7,9.8-3.6,9.8-7.6c0-4.5-4.4-6.5-7.2-8.4c-1.5-0.9-3.1-1.7-3.1-2.3c0-0.6,1.9-0.6,2.7-0.6
			c1.2,0,2.3-0.1,2.3-1c0-0.7-0.2-2.1-0.2-3.2c0-0.8,0.1-1.4,0.4-1.4c1.2,0,2.8,3.8,3.6,3.8c1.2,0,3-3.1,4.1-3.1
			c0.4,0,0.5,0.2,0.5,0.9C216.1,133.3,214.7,136.6,214.7,139.4z M177.5,116.5c0.9,6.6,9.8,3.3,9.8,11.3c0,1.2-0.3,2.9-0.3,4.4
			c0,1.7,0.2,3.2,1.5,3.2c1.3,0,1.6-0.9,1.6-2.2c0-1.2-0.3-2.8-0.3-3.7c0-2.7,2-3.4,3.1-3.4c3,0,5.2,3,9.7,3c-1,5-11.3,3.7-11.3,9.1
			c0,2.7,2.7,3.4,4.5,3.4c1.6,0,2.2-0.2,2.2-1.6c0-0.8-0.2-1.6-0.2-2.2c0-0.3,0.2-0.6,0.6-0.6c1.7,0,10.1,6.4,10.1,8.4
			c0,1.8-8.9,3.6-11.5,3.6c-0.8,0-0.9-0.5-0.9-0.9c0-0.5,1.3-2.2,1.3-3.1c0-0.7-1.2-1.2-4.3-1.2c-1.5,0-2.6,0.2-2.6,1.3
			c0,2.1,3.4,4.7,3.4,6.6c0,1.6-0.9,2.5-3.4,2.5c-2.1,0-5.3-1.6-5.3-4.4c0-2.2,2.2-4.4,2.2-5.7c0-0.4-0.3-1-1.2-1
			c-2.9,0-3.7,7.6-13.9,8.5c1.6-1.5,3-3.1,3-6.5c0-1.6-0.4-3-0.4-4.8c0-2.3,1.1-3.5,2.6-3.5c2.9,0,4.3,4.1,6.2,4.1
			c1,0,2.1-0.9,2.1-2.3c0-5.9-11.4-5.1-11.4-13.4C174.6,123.2,175.3,120.4,177.5,116.5z"/>
		<path class="st0" d="M192.3,167.2c0,1.1,0.8,2,1.9,2c1.2,0,2-1.1,2-2.3c0-1.6-1.5-3.9-2.9-3.9c-0.6,0-0.4,0.9-0.5,2
			C192.7,165.7,192.3,166.6,192.3,167.2z M188.2,156.9c8.2,1.6,12.6,7.7,12.6,13.5c0,4-2.5,7.6-6.9,7.6c-4,0-6.9-2.7-6.9-7.1
			c0-3.3,2.6-6.7,2.6-10.1C189.7,159.5,189.3,158.2,188.2,156.9z M177.8,170.1c0.8,0.8,1,1.6,1,2.3c0,1.2-0.5,2.4-0.5,3.7
			c0,1.9,1.4,3.5,3.4,3.5c2.2,0,3.7-1.7,3.7-3.7C185.4,173,182.4,170.1,177.8,170.1z M203.7,165.1c0.5,0.9,0.8,1.7,0.8,2.5
			c0,2.2-1.5,4.2-1.5,6.5c0,2.6,2,4.7,4.9,4.7c3.2,0,5.4-2.6,5.4-5.6C213.3,169,209.5,165.5,203.7,165.1z M179.7,161
			c3.6,0.5,4.5,1.7,4.5,2.7c0,1.7-1.6,2.3-3.1,2.3c-1.1,0-2.3-0.2-3.7-0.2c-1.7,0-3.4,0.4-4.8,2c1,0.2,2.5,0.9,2.5,2.4
			c0,4.5-12.6,0.8-12.6,12.4c0,6.2,6.4,12.9,16.1,12.9c5,0,8.2-1.6,8.2-3.5c0-1.5-2.7-0.5-2.7-1.7c0-0.5,0.9-1.6,0.9-2.4
			c0-0.4-0.3-1.1-0.9-1.1c-1.4,0-4.1,2.3-9.4,2.3c-4.2,0-8.3-2.4-8.3-5.7c0-0.7,0.3-1.1,0.8-1.1c0.5,0,1.1,0.3,1.6,0.3
			c0.5,0,0.5-0.3,0.5-1.2c0-0.9,0-3.3,1.5-3.3c1.5,0,4.3,5.5,15.1,5.5c3.6,0,10.5-0.7,13.1-3c-0.1,8.6-6.8,19.9-20.8,19.9
			c-14.6,0-22.4-11.7-22.4-22.5c0-11.9,9.7-22.8,23.1-22.8c3.4,0,6.3,1.2,6.3,2.6C185.2,159.8,180.1,158.6,179.7,161z"/>
		<path class="st0" d="M129.2,71.9c5.1,0,7.5,4.4,7.5,9.4c0,2.2-0.6,5.4-1.6,5.4c-1,0-0.9-1.8-1-3.4c-0.2-2.1-0.5-2.6-1.2-2.6
			c-1.3,0-2.2,3.1-2.2,6c0,1.8,0.3,3.8,1.7,3.8c0.8,0,1.5-0.4,2-0.9c-0.3,3.6-3,6.7-6.7,6.7c-6.9,0-9.4-8-10.2-12.7
			c-4.1,4.4-8,7.6-14.8,7.6c-6.4,0-9.3-4.7-9.3-9.1c0-1.3,0.5-4.8,2.1-4.8c1.9,0,0.2,6.4,4.1,6.4c0.9,0,2.7-0.8,3.6-3.4
			c0.5-1.6,0.9-3.2,0.9-4.6c0-2.1-0.5-3.4-2-3.4c-1.3,0-3,1-3.5,1.6c1.9-5.6,6.4-8.5,11.4-8.5c6.2,0,9.4,5.5,9.4,11.5
			c0,0.9-0.1,1.8-0.2,2.7C121.6,75.3,125.3,71.9,129.2,71.9z M123.2,81.1c0-1.3-0.3-1.6-0.6-1.6c-0.8,0-1.6,0.9-2.9,3
			c0.2,2.8,0.6,4.1,1.4,4.1C122,86.6,123.2,83.8,123.2,81.1z M112.5,84.3c0.9,0,2-0.9,4-3.2c0.2-1,0.2-2,0.2-3.1
			c0-1.6-0.6-3.3-1.6-3.3c-2.3,0-3.5,6.2-3.5,7.9C111.6,83.5,112.1,84.3,112.5,84.3z M125.3,91.3c1.9,0,4.1-7.5,4.1-12.2
			c0-1-0.2-2.1-0.6-2.1c-1.6,0-4.4,7.7-4.4,11.9C124.4,90.6,124.8,91.3,125.3,91.3z M106.2,87c2.7,0,5.7-14.4,5.7-16.8
			c0-0.6-0.2-1.1-0.8-1.1c-2.4,0-5.8,13.7-5.8,16.7C105.3,86.3,105.5,87,106.2,87z"/>
		<path class="st0" d="M114.7,92.9c-3.4,0-3.5,4.1-3.5,12.2c-2.5-5.4-6.6-11.2-11.5-11.2c-3.3,0-4.5,2.2-4.5,6c0,0.8,0.1,2,0.2,2.7
			c0.4-1.3,1.6-1.9,3.2-1.9c3.4,0,7.4,2.6,10.1,6.1c-3-0.5-6-1.1-8.5-1.1c-1.6,0-3,0.2-4.1,0.7c-2.3,1-5.3,4.4-5.3,9.4
			c0,0.8,0.1,1.6,0.2,2.6c2.7-6.1,10-8.8,14.7-8.8c0.9,0,1.6,0.1,2.2,0.2c-2.4,2.2-3,6-3.1,8.6c-0.1,1.2-0.5,1.3-1.4,1.3
			c0,2.6,2,6.4,2,8.3c0,0.7-0.4,1.3-0.8,1.5c0,3.4,3.4,5.9,3.4,8.1c0,0.5-0.2,1-0.4,1.2c0.2,1.4,4,3.8,4.5,4.9
			c0.6,1.4,1.3,1.7,1.7,1.7c1.3,0,3.4-1.6,3.4-3c0-0.5-0.4-1-0.7-1.2c-1.5-1.1-2.3-3.4-2.9-5c-0.5,0-1.3-0.2-1.5-1.1
			c-0.4-1.6-0.4-4.6-1.1-6.4c-1-0.2-1.5-0.6-1.5-2.7c0-1,0.6-5,0.6-6.4c-0.5,0-1.1-0.3-1.1-1.2c0-2.5,2.5-4.4,3.2-7.6
			c4.4,3.3,5.5,6.6,5.5,9.6c0,1.6-0.2,3-0.5,4.4c3.3-1.6,8.2-4.1,8.2-9c0-2.9-1.3-6.1-10.1-7.3c2.7-1,6.2-1.6,9-1.6
			c5,0,7.9,1.6,8.5,5.1c1-1.6,1.8-3.4,1.8-5c0-3.8-3.2-6.3-7.3-6.3c-4.8,0-9,2.5-13.5,5.5c2-4.2,3.4-6.7,5.9-6.7
			c0.4,0,0.8,0.1,1.2,0.2C120,96.3,116.5,92.9,114.7,92.9z"/>
		<path class="st0" d="M246.1,149.1c3.9,0,7,5.1,7,11c0,6.3-3,13.2-8.3,17.9c-0.1-10.5-13-7.2-13-14.8c0-3.3,2.3-5.5,5.2-5.5
			c2.5,0,4.4,0.7,5.9,2.1c-1.4-1.3-2.1-3.2-2.1-5C240.8,151.9,242.7,149.1,246.1,149.1z"/>
		<path class="st0" d="M188.2,69.3c-0.6-1-3-1.6-4-1.6c-3.4,0-5.8,2.4-6.2,4.6c-0.3-0.8-0.5-1.7-0.5-2.7c0-3.4,2.3-7.6,8-7.6
			c5,0,6.9,2.7,7.6,2.7c0.8,0,1.6-0.8,2.2-0.8c0.9,0,0.9,1.3,0.9,2.3c0,3.1-1.4,8.5-4.9,10.5c-0.6-1.3-1.9-2.8-3.9-3.7
			c-0.5-0.2-0.8-0.7-0.8-1.2C186.5,70.9,187.3,69.8,188.2,69.3z M176.4,75c2,2,3.8,2.8,6,2.8c0.9,0,1.9-0.2,2.4-0.2
			c0.7,0,1.2,0.3,1.2,0.9c0,0.9-0.8,2.3-1.7,3c0.9,0.4,2,0.5,3,0.5c4.4,0,9.5-2.8,9.5-9.8c0.9,1.2,1.5,3.8,1.5,5
			c0,8.5-6.2,11.8-12,11.8c-3.8,0-5.6-1.2-6.1-1.2c-1.5,0-1.4,3-2.4,2.9c-1.8-0.3-3.4-4.3-3.4-8.5C174.4,79.6,175,77,176.4,75z"/>
		<path class="st0" d="M109.7,25.4c0-0.5-2.3-0.9-5.5-0.9c-5.1,0-4.4,4.2-8.3,4.2c-4.1,0-3-4.4-8.2-4.4c-3.1,0-6,0.5-6,1.2
			c0,0.9,3.7,0.5,3.7,3.1c0,2.7-7.9,3.5-7.9,5.1c0,0.5,0.6,0.8,1.4,0.8c1.7,0,4.4-0.8,6.4-0.8c1.1,0,2.1,0.2,2.1,1.2
			c0,2-4.2,5.5-4.2,7c0,0.5,0.4,0.6,0.8,0.6c1.6,0,4.2-4,6.7-4c4.1,0,1.4,8.8,3.7,8.8c2.3,0,1.3-8.7,4.7-8.7c2.7,0,4.8,6,6.6,6
			c0.5,0,0.9-0.4,0.9-0.9c0-1.6-2.3-5-2.3-7.2c0-1.3,0.9-2,2.2-2c1.8,0,4.2,1.1,5.5,1.1c0.5,0,0.9-0.2,0.9-0.7
			c0-1.9-6.9-3.9-6.9-6.3C105.8,26.5,109.7,26.5,109.7,25.4z M128,33.4c0,1.4,4.9,4.4,7.2,4.4c1.3,0,1.7-1.8,1.7-3.7
			c0-2.3-1-2.4-3-2.4C131.3,31.7,128,32.4,128,33.4z M136.1,48.8c0-4.7-12.7-13.2-12.8-16.8c0-0.3,0.2-0.7,0.5-1
			c2.2-2.3,11.2-4,11.2-5.9c0-1-1.9-1-2.8-1c-7.3,0-17.9,2.7-17.9,5.2c0,2.7,9.5,9.1,9.5,12.3c0,0.9-0.5,1.2-1.4,1.2
			c-2.6,0-8.4-3.2-11.2-3.2c-1.2,0-1.7,0.9-1.7,2.1c0,3.7,4.4,10.8,4.4,12.9c0,0.2-0.1,0.5-0.4,0.5c-1.4,0-8-7.8-10.4-7.8
			c-0.9,0-0.9,1.2-0.9,2.9V53c0,1.8-0.1,2.9-0.9,2.9c-2,0-3-5.7-4.9-5.7c-2,0-2.4,10.1-4.4,10.1c-2.3,0-0.3-11.2-2.5-11.2
			c-2.4,0-5.1,7.4-6.9,7.4c-0.6,0-0.8-0.6-0.8-1.2c0-2.3,1.3-5.9,1.3-8.1c0-1.1-0.3-1.7-1.2-1.7c-2.4,0-7.7,3.9-9.8,3.9
			c-0.3,0-0.7-0.2-0.7-0.5c0-1.9,8.5-7.8,8.5-10.4c0-2.6-11.7-0.9-11.7-3.8c0-2.5,8.4-5.1,8.4-7.6c0-2.3-9.9-3.3-13.7-3.3
			c-4.6,0-7.1,0.5-7.1,1.9c0,2,10.5,2.7,10.5,4.4c0,1.7-10.8,6.3-10.8,9c0,2.3,15.3,0.2,15.3,2.6c0,2.6-13.3,14.1-13.3,17.9
			c0,0.9,0.6,1.3,1.5,1.3c4.1,0,14.6-7.7,17.5-7.7c1,0,1.1,1.2,1.1,2.3c0,2-0.7,5.1-0.7,7.4c0,1.8,0.5,3,2,3c2.9,0,5.5-4.9,7.5-4.9
			c2.5,0,1,14.4,4.8,14.4c3.2,0,4.5-15.6,6.6-15.6c2,0,3.7,4.5,5.5,4.5c2.3,0,1.2-7.9,3.7-7.9c2.7,0,10.5,9.4,14,9.4
			c1.1,0,1.5-0.9,1.5-2c0-4.1-5.8-13.5-5.8-16.5c0-0.8,0.2-1,1.1-1c3,0,11.9,4.2,16.1,4.2C135.3,50.6,136.1,49.8,136.1,48.8z
			 M64.9,44.3c0,1.6-5.9,6.8-8,6.8c-0.8,0-1-0.9-1-1.8c0-1.6,0.7-3.7,1.6-4.4c1-0.9,3.4-1.4,5.1-1.4C63.6,43.4,64.9,43.7,64.9,44.3z
			 M122.2,52.3c0,2.7,9.8,16.1,11.6,16.1c1.6,0,2.7-2.7,2.7-5.1c0-0.6-0.2-1.2-0.5-1.7c-1.4-2-11.3-9.8-13.5-9.8
			C122.4,51.9,122.2,52.1,122.2,52.3z"/>
		<path class="st0" d="M247.5,28.7c0,1.1,0.9,1.9,2,1.9c1.1,0,2-0.9,2-1.9c0-1.1-0.9-2-2-2C248.4,26.7,247.5,27.6,247.5,28.7z
			 M234.8,45.9c0-5.5-13.3-6.9-13.3-8.2c0-1,7.4-2.7,11.2-2.8c-5.8-7.5-14.2-6.7-14.2-8c0-0.8,6.2-2.3,12-2.3c4.8,0,9.4,1.1,9.4,4.8
			c0,2-1.6,4.1-1.6,7.3c0,1.7,0.9,3.2,3.1,3.2c2.4,0,3-2.6,3-5.3c0-2.3-0.4-4-0.4-5.1c0-3.3,2.2-5.5,5.4-5.5c2.7,0,3.3,1.2,7.2,1.2
			c-2.1,1.3-2.9,3.5-2.9,4.6c0,3.3,2.1,5.5,2.1,12.3c0,12.3-11.5,16.7-25.7,16.7c-3.9,0-8-0.3-12.1-0.9c-0.6-0.1-0.8-0.2-0.8-0.6
			c0-1,5.5-1.6,5.5-6.6c0-2-0.6-3.8-0.6-4.5c0-0.4,0.3-0.6,0.6-0.6c1.2,0,3.5,4.5,7.9,4.5C231.9,49.9,234.8,49.5,234.8,45.9z
			 M248,38.1c0,6.9-5.1,12.2-14.2,13.7c1,0.1,2,0.1,2.9,0.1c10.7,0,14.6-4.8,14.6-8.9C251.2,40.7,250,38.7,248,38.1z"/>
		<path class="st0" d="M242.6,138.6c1.2-3.9,2.8-6.6,5.4-10.8c-2.6-1.3-9.4-4.1-9.4-8.7c0-5.4,6.7-9.6,8.1-9.6
			c0.6,0,0.8,0.5,0.8,1.6c0,2.8-1.3,7.3-1.3,9.8c0,2.2,1.4,4.3,2.7,4.3c1.3,0,5-4.7,5-9.3c0-8.3-7.3-10.8-9.5-10.8
			c-2.1,0-5.9,3.4-14.9,3.4c-16.8,0-20.6-16.6-20.6-23.9c0-0.3,0.1-0.4,0.2-0.4c0.4,0,2,2,7.3,2c2.7,0,5.2-0.7,9.2-0.7
			c9.3,0,13.5,6.5,19.3,14.7c3.5,2.2,11.8,5.7,11.8,15.6c0,8.7-9.3,13.6-11.5,22.9c3.6-0.4,5.7-6.8,9.4-6.8c1.9,0,2.7,1.5,2.7,3.8
			c0,3.4-2,8.6-5.7,11.8c0.1-0.3,0.1-0.7,0.1-1.2c0-2.2-0.9-5.3-3.4-5.3c-3.9,0-5.1,4.2-7.3,7.7c-2.3-8-5.3-15.1-10.8-19.5
			c-5.5-4.4-15.1-2-15.1-10.1c0-2.2,1.4-5.3,1.4-7.8c0-0.9-0.2-1.6-0.6-2.3c7.5,2.8,4.8,7.8,9.5,12.9c2.9,3.3,10.8,6.4,15.4,19.9
			c0.1-0.4,0.2-1.4,0.2-2.1c0-11.5-15.3-22.9-16.6-27.5c8.9,1,10.4,3.2,14.7,14.9C239.8,129.6,242.6,135.6,242.6,138.6z
			 M240.6,100.8c0-1.6-4.1-1.8-4.5-6.4c-0.1-0.7-0.3-1.9-1.2-1.9c-1.4,0-0.3,4.3-1.9,4.3c-3.6,0-4.8-7-6.1-7c-0.3,0-0.7,0.2-0.7,1.2
			c0,0.9,0.2,1.4,0.2,2.4c0,1-0.2,1.7-1.2,1.7c-2.1,0-4-4.9-5.8-4.9c-0.4,0-0.8,0.2-0.8,0.6c0,0.9,1.6,2.7,1.6,3.5
			c0,1.9-5.1,0.9-5.1,2.4c0,0.7,0.7,0.9,1.6,0.9c1.6,0,4.2-0.7,5.5-0.7c0.8,0,2,0.2,2,1.2c0,1.1-2.8,2.5-2.8,3.5
			c0,0.5,0.5,0.7,0.9,0.7c2.1,0,5.8-3.7,8.5-3.7c0.5,0,1.6,0.2,1.6,0.9c0,1-2.7,2.8-2.7,4.3c0,0.4,0.2,0.9,0.7,0.9
			c1.4,0,3.3-3.7,5.9-3.7c1,0,2.5,0.4,3.3,0.4C240.3,101.4,240.6,101,240.6,100.8z"/>
		<path class="st0" d="M182.4,54c1.3,0,1.5,3,1.7,4.8c0.2,0.9,0.3,1,0.7,1c0.9,0,2.4-3.6,3.4-3.6c1.5,0,5.5,4.1,12.1,4.1
			c9.4,0,18.3-6.6,18.3-18.3c0-11.3-8-17.9-19-17.9c-5.2,0-9.1,2.6-11.1,2.6c-1.2,0.1-3.1-3-4-3c-0.4,0-0.8,0.8-0.8,2.1
			c0,0.9,0,3.6-0.9,3.6c-1.9,0-9.1-5.4-9.1-3.4c0,1.8,4.8,7.3,4.8,8.7c0,1.4-4.8,2.7-4.8,3.7c0,1.7,5.1,2,5.1,4.2
			c0,2.2-5.3,3.9-5.3,5.5c0,1.3,5.3,0.4,5.3,2c0,1.6-3.9,7.1-3.9,8.7c0,0.4,0.1,0.4,0.4,0.4C176.9,59.1,181.4,54,182.4,54z
			 M184.7,41.3c0-0.9-3-2.5-3-3.4c0-0.2,0.2-0.2,0.4-0.2c0.9,0,2.3,0.3,3.5,0.3c1,0,1.2-4.4,1.9-4.4c0.5,0,1.5,4.1,2.3,4.1
			c1,0,2.9-1.2,3.7-1.2c0.2,0,0.3,0.1,0.3,0.2c0,0.5-2,2.6-2,3.3c0,0.7,4.4,1.6,4.4,2.2c0,0.8-4.5,0.7-4.5,1.4
			c0,0.5,1.6,2.7,1.6,3.4c0,0.2-0.1,0.2-0.2,0.2c-0.6,0-3-1.1-3.7-1.1c-0.9,0-2.2,3.2-3,3.2c-0.2,0-0.4-0.3-0.4-0.7l-0.2-3.1
			c0-0.3-0.2-0.6-0.5-0.6c-0.9,0-2.7-0.1-3.3-0.1c-0.4,0-0.5-0.1-0.5-0.2C181.6,44,184.7,41.8,184.7,41.3z M199.9,56.1
			c-5.5,0-9.1-2.7-9.1-4.1c0-0.7,0.5-1.2,1.1-1.2c1.7,0,5.5,2.6,6.7,2.6c0.3,0,0.5-0.2,0.5-0.6c0-1.4-1.3-3.7-1.3-4.9
			c0-0.3,0.2-0.5,0.7-0.5c2.1,0,5.2,0.9,6.9,0.9c0.5,0,0.7-0.3,0.7-0.6c0-1.7-5.1-5.1-5.1-6.1c0-0.9,6.3-2.3,6.3-3.8
			c0-1.6-8.6-0.5-8.6-2c0-1.1,1.6-3,1.6-3.8c0-0.4-0.3-0.5-0.9-0.5c-0.7,0-4.5,1.5-6,1.5c-0.8,0-1.7-0.2-1.7-1.2
			c0-1.8,3-3.7,7.8-3.7c7.7,0,12.3,5.3,12.3,14.2C212,53.3,204.1,56.1,199.9,56.1z"/>
		<path class="st0" d="M147.1,191c0,0.7-0.2,1.5-0.9,2.3c-0.9-1.6-3.3-2.3-4.4-2.3c-8,0-5,11.6-13.6,11.6c-3.6,0-3.9-0.5-5.2-0.5
			c-0.5,0-0.9,0.2-0.9,0.7c0,2,2.9,7,10.9,7c8,0,15.8-4.9,15.8-11c0-1-0.2-2.1-0.7-3.2c0.3-0.5,1.1-0.8,1.8-0.8
			c1.2,0,1.9,1.4,3.1,1.4c1.2,0,2.2-0.9,2.2-2.2c0-1-0.5-1.7-1.5-2.2c0.6-0.5,1.1-1.2,1.1-2.1c0-1.3-0.9-2.6-2.5-2.6
			c-0.7,0-1.2,0.2-1.7,0.8c-0.2-1.4-0.9-2.7-2.4-2.7c-1.2,0-2,0.9-2,2.2C146.3,188.7,147.1,189.7,147.1,191z"/>
		<path class="st0" d="M126.1,194c-2.3,0-5.9-2.5-5.9-3.9c0-1.2,1.1-1.8,1.9-1.8c2,0,5.5,2.4,5.5,4.4
			C127.7,193.3,127.3,194,126.1,194z M104.4,176.5c6.2,1.6,9.4,4.9,10,8.9c0.6,3.8,1.4,6.9,2.9,8.5c2,2.2,5.8,4.1,9.1,4.1
			c2.8,0,5.1-0.9,5.1-3.5c0-2.8-3.8-9.1-9.4-9.1c-0.5,0-1.2,0.1-2,0.1c-0.7,0-1.7-0.2-2.3-0.7c-1.2-1.1-1.6-6.9-4-10.5
			c-2.6-3.9-5.4-5-9.2-5c-2.7,0-5.8,1.5-5.8,3.7C98.7,174.3,99.4,175.3,104.4,176.5z"/>
		<path class="st0" d="M143.5,167c0-3.5-7.3-3.6-7.3-8.9c0-1.3,0.9-3.6,2.6-6c0.7,4.1,2.3,6.2,5.9,7.5c6.9,2.6,7.9,6.5,7.9,10.6
			c0,7-4.9,15.8-17.6,15.8c-10.1,0-17.4-9-17.4-16.7c0-2.1,0.5-4.4,1.9-4.4c1.2,0,1.6,0.9,2.5,1.9c3.5,3.5,7.3,4.4,12.9,4.4
			C139.9,171.1,143.5,169.1,143.5,167z M143.8,172.6c-2.7,1.2-3.7,1-3.7,3.7c0,1-0.2,2.3-0.2,3c0,0.9,0.2,1.5,1.2,1.5
			c2.8,0,7.3-4.8,7.3-8.8c0-1.1-0.6-1.6-1.3-1.6C146.4,170.5,145.7,171.8,143.8,172.6z M118.9,133.2c0-5,11.9-7.6,11.9-13.8
			c0-1-0.4-2.8-1.1-4.1c4.1,2.3,7.2,6.1,7.2,9.2c0,5.4-5.6,7.9-5.6,11.2c0,3.9,6,4.5,6,9.4c0,4-5.7,8.6-5.7,13.7
			c0,4,2.8,7.3,7.1,7.8c-1.4,0.3-2.7,0.5-4,0.5c-7.9,0-16-6.5-16-14.2c0-3.8,1.6-7.2,4.1-9.6c2.2,1.9,4.4,3.1,5.8,3.1
			c1.2,0,1.8-0.6,1.8-1.6C130.4,142,118.9,139.4,118.9,133.2z"/>
		<path class="st0" d="M73.7,171.8c0.3,2.7,2.8,4.7,5.6,4.4c1-0.1,2-0.4,2.6-0.8c0.6,2.5,2.7,4.1,5.5,3.7c2.9-0.4,4.8-2.6,4.5-5.5
			c-0.1-0.8-0.2-1.2-0.5-1.8c0,0,0.4,0,0.7-0.1c2.8-0.5,4.7-2.8,4.5-5.5c-0.3-2.8-2.8-4.9-5.5-4.6c-1,0.1-2,0.5-2.6,1.1
			c-0.7-2.3-2.9-4.4-5.9-3.9c-2.7,0.4-4.5,2.8-4.2,5.7c0,0.5,0.2,1,0.4,1.6c0,0-0.5,0.1-0.8,0.1C75.8,166.4,73.3,168.7,73.7,171.8z
			 M88.3,168.7c0.2,1.6-1,3.1-2.6,3.3c-1.6,0.2-3.1-1-3.3-2.6c-0.2-1.6,1-3.1,2.6-3.3C86.6,165.9,88.1,167.1,88.3,168.7z"/>
	</g>
</g>
</svg>
